<?xml version="1.0" standalone="no"?>
<!DOCTYPE svg PUBLIC "-//W3C//DTD SVG 20010904//EN"
 "http://www.w3.org/TR/2001/REC-SVG-20010904/DTD/svg10.dtd">
<svg version="1.0" xmlns="http://www.w3.org/2000/svg"
 width="1024.000000pt" height="576.000000pt" viewBox="0 0 1024.000000 576.000000"
 preserveAspectRatio="xMidYMid meet">
<metadata>
Created by potrace 1.15, written by Peter Selinger 2001-2017
</metadata>
<g transform="translate(0.000000,576.000000) scale(0.100000,-0.100000)"
fill="#000000" stroke="none">
<path d="M0 2880 l0 -2880 1505 0 1505 0 0 39 c0 59 19 144 35 161 15 14 116
42 124 34 2 -2 4 -30 5 -61 0 -43 -7 -73 -26 -115 l-27 -58 1228 0 1228 0 11
25 c6 14 17 25 24 25 9 0 8 3 -2 10 -13 8 -13 10 1 10 33 0 34 -55 1 -63 -10
-3 1028 -5 2306 -6 l2322 -1 0 2880 0 2880 -5120 0 -5120 0 0 -2880z m6490
2539 c234 -6 458 -13 499 -17 l74 -7 -2 -85 c-2 -108 -38 -1051 -47 -1229 l-6
-134 -312 6 c-171 4 -599 14 -951 22 -352 9 -909 22 -1238 29 -328 7 -599 15
-601 17 -4 4 -10 107 -56 894 -24 416 -26 462 -20 468 6 6 490 27 840 37 425
11 1360 11 1820 -1z m3066 -490 c14 52 29 81 43 81 12 0 41 -62 42 -88 l1 -27
11 28 c15 38 27 34 27 -11 0 -58 -47 -423 -70 -541 -22 -114 -39 -151 -41 -85
-1 36 -1 37 -9 12 -4 -15 -18 -39 -29 -54 -12 -15 -21 -33 -21 -41 0 -20 -19
-6 -19 15 -1 9 -4 35 -7 57 -3 23 1 101 10 175 9 74 23 195 32 268 8 73 14
138 11 145 -2 7 -9 -31 -15 -83 -26 -218 -53 -400 -69 -470 -17 -70 -18 -72
-21 -35 -2 22 13 168 33 325 49 394 67 478 73 345 l4 -70 14 54z m-836 -299
c25 -25 25 -57 5 -279 -17 -186 -22 -211 -40 -211 -7 0 -23 -12 -34 -27 l-20
-28 -1 27 c0 15 -5 30 -11 34 -20 12 18 465 40 472 5 2 7 10 4 18 -8 22 33 18
57 -6z m-8033 -181 l12 -34 0 38 c1 38 16 50 25 20 12 -39 36 -211 36 -257 0
-70 -18 -47 -34 45 l-14 74 2 -84 c1 -87 -11 -113 -34 -71 -13 25 -39 193 -40
256 0 65 26 73 47 13z m7589 -136 c20 -30 24 -48 24 -107 0 -90 -13 -136 -46
-165 -14 -12 -28 -20 -31 -18 -12 13 -15 130 -4 225 14 118 21 149 28 119 3
-11 16 -35 29 -54z m-2323 -1848 c43 -8 148 -16 235 -17 86 -2 160 -7 164 -12
11 -16 -3 -34 -25 -32 -12 2 -47 9 -77 15 -37 9 -121 12 -258 9 -157 -2 -202
0 -202 10 0 6 7 12 15 12 9 0 18 7 21 15 8 19 29 19 127 0z m-75 -112 c56 -12
131 -16 280 -17 l202 -1 -6 -30 c-8 -38 -10 -40 -28 -26 -28 23 -124 34 -353
38 -128 2 -233 6 -233 9 0 2 6 13 12 24 15 24 28 25 126 3z m-376 -363 c0 -3
-3 -24 -7 -48 -4 -30 -2 -43 7 -46 7 -3 153 -12 323 -21 407 -21 393 -20 401
-28 4 -4 2 -7 -5 -7 -7 0 -9 -5 -5 -11 5 -9 -19 -10 -92 -6 -54 4 -223 14
-374 23 -151 8 -280 17 -287 19 -7 3 -10 21 -8 52 9 106 22 142 38 102 6 -13
10 -26 9 -29z m169 -162 c4 -6 20 -7 38 -3 20 4 37 2 46 -5 10 -8 76 -12 204
-13 104 -1 187 -6 184 -10 -2 -4 7 -5 21 -1 39 9 58 -15 45 -60 -11 -41 -15
-42 -144 -26 -153 18 -586 40 -663 34 -66 -6 -81 -4 -95 11 -21 20 -17 41 6
37 9 -1 21 7 27 18 6 11 19 20 29 20 10 0 23 6 29 13 8 9 39 10 139 3 70 -5
131 -13 134 -18z m-211 -214 c85 -9 241 -17 345 -18 105 -2 223 -4 263 -4 l74
-2 -7 -40 c-4 -22 -8 -48 -9 -58 -2 -9 -8 -18 -14 -18 -7 -1 -17 -2 -23 -3 -5
0 -8 -5 -5 -10 8 -12 -18 -21 -60 -21 -20 0 -33 4 -29 10 14 22 -75 32 -585
66 -135 8 -246 17 -248 18 -1 2 1 11 4 21 6 16 17 17 98 11 435 -31 655 -42
645 -31 -6 5 -494 43 -607 47 -41 1 -75 5 -77 9 -2 3 2 15 10 26 10 15 22 19
42 16 15 -2 98 -11 183 -19z m-201 -241 c106 -9 185 -20 175 -23 -10 -4 32
-10 94 -14 62 -4 117 -4 123 -1 9 6 361 -12 385 -20 13 -4 -24 -187 -40 -202
-5 -4 -6 -3 -2 5 4 7 1 12 -7 12 -10 0 -13 7 -10 20 3 13 0 20 -8 20 -8 0 -52
5 -99 10 -137 16 -763 60 -855 60 -77 0 -85 2 -85 19 0 11 -8 22 -17 24 -14 4
-12 5 5 6 12 0 22 4 22 9 0 4 9 22 20 40 17 28 23 32 36 21 12 -10 18 -8 30 9
18 26 -2 26 233 5z m-839 -333 c29 0 45 -20 41 -52 -2 -17 30 -31 104 -44 l40
-7 -29 -8 c-18 -5 -41 -3 -60 4 -33 14 -66 12 -66 -4 0 -5 17 -9 37 -9 62 0
32 -9 -45 -13 -57 -3 -72 -1 -72 10 0 8 5 11 10 8 6 -3 10 -2 10 3 0 6 -7 12
-15 16 -9 3 -15 18 -15 35 0 33 22 90 28 72 2 -6 16 -11 32 -11z m497 4 c40
-3 70 -10 67 -15 -3 -5 3 -9 13 -9 10 0 122 -9 248 -20 127 -12 245 -18 263
-15 30 6 380 -12 409 -20 9 -3 9 -13 1 -39 -14 -44 1 -43 -283 -16 -319 29
-814 70 -856 70 -48 0 -53 9 -28 49 18 30 23 33 57 28 20 -3 70 -9 109 -13z
m-120 -97 c7 0 10 -3 8 -7 -2 -4 10 -7 28 -8 18 -1 142 -11 277 -22 135 -11
352 -23 483 -25 131 -2 254 -7 274 -11 35 -7 35 -7 30 -46 -3 -22 -7 -42 -9
-44 -9 -8 -56 -6 -168 10 -63 9 -315 31 -560 51 -492 39 -520 41 -527 48 -2 3
3 20 12 37 l17 32 61 -7 c34 -4 67 -8 74 -8z m-538 -171 c19 -12 6 -97 -26
-169 -27 -61 -40 -66 -60 -26 -16 30 -16 63 -2 129 14 66 48 91 88 66z m511
-197 c168 -18 307 -35 310 -38 3 -3 43 -7 90 -8 47 -2 195 -12 330 -23 135
-11 268 -21 295 -22 49 -3 50 -4 51 -36 2 -57 -8 -61 -126 -51 -58 5 -170 16
-250 24 -576 60 -897 84 -886 67 3 -6 -1 -17 -9 -25 -18 -18 -16 -19 154 -42
62 -8 116 -17 120 -19 3 -2 94 -12 201 -21 219 -18 537 -17 549 3 8 13 51 5
51 -10 0 -6 9 -8 20 -5 16 4 19 1 16 -16 -3 -12 -5 -31 -5 -41 -1 -17 -7 -18
-63 -12 -255 27 -479 49 -771 76 -349 31 -472 37 -342 16 39 -6 75 -14 80 -17
18 -11 75 -18 405 -49 179 -17 368 -31 420 -31 52 1 132 -2 178 -5 71 -6 82
-9 82 -25 0 -22 -39 -24 -156 -9 -39 5 -165 18 -280 29 -115 11 -308 30 -429
41 -121 12 -299 25 -395 29 -121 5 -184 11 -205 21 -35 17 -46 49 -18 51 17 1
17 2 0 6 -30 8 -8 22 27 16 37 -6 47 4 99 92 26 43 30 47 58 41 21 -4 31 -1
35 9 8 20 16 20 364 -16z"/>
<path d="M5160 1305 c52 -7 113 -14 135 -14 26 -1 35 -4 27 -10 -12 -7 243
-29 383 -33 86 -2 229 2 224 6 -4 4 -617 51 -784 60 l-80 5 95 -14z"/>
<path d="M4670 911 c0 -5 10 -9 23 -9 12 1 105 -7 206 -16 101 -9 192 -14 203
-10 10 3 25 1 31 -5 14 -11 147 -20 387 -25 l145 -4 -135 14 c-177 17 -774 64
-822 64 -21 0 -38 -4 -38 -9z"/>
</g>
</svg>
